<svg width="28" height="22" viewBox="0 0 28 22" fill="none" xmlns="http://www.w3.org/2000/svg">
<path d="M4.5 8C6.433 8 8 6.433 8 4.5C8 2.567 6.433 1 4.5 1C2.567 1 1 2.567 1 4.5C1 6.433 2.567 8 4.5 8Z" fill="#F40046"/>
<path opacity="0.25" d="M4.5 9C6.98528 9 9 6.98528 9 4.5C9 2.01472 6.98528 0 4.5 0C2.01472 0 0 2.01472 0 4.5C0 6.98528 2.01472 9 4.5 9Z" fill="#F40046"/>
<path d="M26.2275 8.06665L21.5819 2.7226C20.6608 1.75812 19.1664 1.75812 18.2395 2.72867C17.9441 3.03803 17.7472 3.40805 17.6429 3.79626C16.7161 3.05622 15.3838 3.12902 14.5323 4.0207C14.2369 4.33006 14.0399 4.70008 13.9357 5.0883C13.0089 4.34826 11.6766 4.42105 10.8251 5.31274C10.5354 5.61603 10.3385 5.97392 10.2342 6.35607L8.03307 4.06923C7.11205 3.10475 5.61757 3.10475 4.69076 4.07529C3.76975 5.03977 3.76975 6.60477 4.69076 7.56925L13.1016 16.383L8.11416 17.2019C6.7645 17.4021 5.7508 18.6334 5.7508 20.0589C5.7508 21.1265 6.58493 22 7.60442 22H19.259C21.0721 22 22.7809 21.26 24.0669 19.9133L26.0132 17.8752C27.2933 16.5346 28 14.7452 28 12.8466C27.9942 11.0814 27.3628 9.38295 26.2275 8.06665ZM25.1269 16.9653L23.1806 19.0035C22.1321 20.1014 20.7361 20.708 19.2475 20.708H7.60442C7.26266 20.708 6.98461 20.4168 6.98461 20.0589C6.98461 19.2703 7.54649 18.597 8.29952 18.4818L14.4976 17.4627C14.7293 17.4263 14.9146 17.2565 14.9899 17.026C15.0594 16.7955 15.0015 16.5407 14.8393 16.3709L5.56544 6.65936C5.1252 6.19836 5.1252 5.45225 5.57123 4.98518C5.79135 4.75467 6.08097 4.63942 6.36481 4.63942C6.65444 4.63942 6.93827 4.75467 7.15839 4.98518L13.339 11.4575C13.5823 11.7123 13.9704 11.7123 14.2137 11.4575C14.3354 11.3301 14.3933 11.1663 14.3933 10.9965C14.3933 10.8266 14.3354 10.6629 14.2137 10.5355L11.6882 7.89074C11.2479 7.42973 11.2479 6.68363 11.694 6.21655C12.1342 5.75555 12.8467 5.75555 13.2869 6.21655L15.8125 8.86128C16.0558 9.11605 16.4439 9.11605 16.6871 8.86128C16.8088 8.7339 16.8667 8.57012 16.8667 8.40027C16.8667 8.23043 16.8088 8.06665 16.6871 7.93927L15.3954 6.58657C14.9552 6.12557 14.9552 5.37946 15.4012 4.91239C15.8414 4.45138 16.5539 4.45138 16.9941 4.91239L18.2917 6.27115C18.535 6.51378 18.9173 6.50772 19.1548 6.25902C19.3981 6.00425 19.3981 5.59783 19.1548 5.34307L19.1026 5.28847C18.8883 5.06403 18.7725 4.76681 18.7725 4.45744C18.7725 4.14808 18.8883 3.85086 19.1084 3.62035C19.5487 3.15934 20.2611 3.16541 20.6782 3.59609L25.3065 8.92194C26.2391 9.9956 26.7488 11.3847 26.7488 12.8344C26.7546 14.4055 26.1811 15.8674 25.1269 16.9653Z" fill="white"/>
</svg>
