<svg width="19" height="13" viewBox="0 0 19 13" fill="none" xmlns="http://www.w3.org/2000/svg">
<path d="M18.1189 1.79715L16.5438 0.302318C16.3314 0.100768 16.066 -7.62939e-06 15.7651 -7.62939e-06C15.4642 -7.62939e-06 15.1988 0.100768 14.9864 0.302318L7.41163 7.49095L4.03131 4.26614C3.81894 4.06459 3.55347 3.96382 3.2526 3.96382C2.95173 3.96382 2.68626 4.06459 2.47389 4.26614L0.898762 5.76097C0.668688 5.96252 0.5625 6.21446 0.5625 6.49999C0.5625 6.78552 0.668688 7.03746 0.881064 7.23901L5.0578 11.2028L6.63292 12.6977C6.8453 12.8992 7.11077 13 7.41163 13C7.7125 13 7.97797 12.8992 8.19035 12.6977L9.76547 11.2028L18.1189 3.27519C18.3313 3.07364 18.4375 2.8217 18.4375 2.53617C18.4375 2.25064 18.3313 1.9987 18.1189 1.79715Z" fill="#F40046"/>
</svg>
