<svg width="20" height="23" viewBox="0 0 20 23" fill="none" xmlns="http://www.w3.org/2000/svg"><path d="M11.8293 21.3501C11.8293 21.8275 11.4505 22.218 10.9874 22.218H3.36778C1.51129 22.218 0 20.6601 0 18.7464V3.47156C0 1.55786 1.51129 0 3.36778 0H15.0708C16.9273 0 18.4386 1.55786 18.4386 3.47156V8.37515C18.4386 8.85249 18.0597 9.24304 17.5967 9.24304C17.1336 9.24304 16.7547 8.85249 16.7547 8.37515V3.47156C16.7547 2.51254 16.0012 1.73578 15.0708 1.73578H3.36778C2.43743 1.73578 1.68389 2.51254 1.68389 3.47156V18.7464C1.68389 19.7055 2.43743 20.4822 3.36778 20.4822H10.9874C11.4505 20.4822 11.8293 20.8728 11.8293 21.3501Z" fill="#1C1C1C"/><path d="M5.09836 11.2826C5.09836 10.8052 4.67739 10.4147 4.21011 10.4147C3.74283 10.4147 3.36816 10.8052 3.36816 11.2826C3.36816 11.7599 3.74704 12.1505 4.21011 12.1505C4.67318 12.1505 5.09836 11.7599 5.09836 11.2826Z" fill="#1C1C1C"/><path d="M7.5773 12.1505C8.04229 12.1505 8.41924 11.7619 8.41924 11.2826C8.41924 10.8032 8.04229 10.4147 7.5773 10.4147C7.1123 10.4147 6.73535 10.8032 6.73535 11.2826C6.73535 11.7619 7.1123 12.1505 7.5773 12.1505Z" fill="#1C1C1C"/><path d="M5.09415 14.5805C5.09415 14.1032 4.67318 13.7126 4.21011 13.7126C3.74704 13.7126 3.36816 14.1032 3.36816 14.5805C3.36816 15.0579 3.74704 15.4484 4.21011 15.4484C4.67318 15.4484 5.09415 15.0579 5.09415 14.5805Z" fill="#1C1C1C"/><path d="M7.5773 15.4484C8.04229 15.4484 8.41924 15.0599 8.41924 14.5805C8.41924 14.1012 8.04229 13.7126 7.5773 13.7126C7.1123 13.7126 6.73535 14.1012 6.73535 14.5805C6.73535 15.0599 7.1123 15.4484 7.5773 15.4484Z" fill="#1C1C1C"/><path d="M4.21011 18.7465C4.6751 18.7465 5.05205 18.3579 5.05205 17.8786C5.05205 17.3992 4.6751 17.0107 4.21011 17.0107C3.74512 17.0107 3.36816 17.3992 3.36816 17.8786C3.36816 18.3579 3.74512 18.7465 4.21011 18.7465Z" fill="#1C1C1C"/><path d="M7.53579 18.7465C8.00079 18.7465 8.37774 18.3579 8.37774 17.8786C8.37774 17.3992 8.00079 17.0107 7.53579 17.0107C7.0708 17.0107 6.69385 17.3992 6.69385 17.8786C6.69385 18.3579 7.0708 18.7465 7.53579 18.7465Z" fill="#1C1C1C"/><path d="M14.2293 3.47156H4.21011C3.74704 3.47156 3.36816 3.86211 3.36816 4.33945V7.81101C3.36816 8.28835 3.74704 8.6789 4.21011 8.6789H14.2293C14.6923 8.6789 15.0712 8.28835 15.0712 7.81101V4.33945C15.0712 3.86211 14.6923 3.47156 14.2293 3.47156ZM13.3873 6.94312H5.05205V5.20734H13.3873V6.94312Z" fill="#1C1C1C"/><path d="M13.1848 11.621C12.1829 11.621 11.3662 12.4629 11.3662 13.4957C11.3662 14.5285 12.1829 15.3703 13.1848 15.3703C14.1867 15.3703 15.0034 14.5285 15.0034 13.4957C15.0034 12.4629 14.1867 11.621 13.1848 11.621ZM13.1848 14.1206C12.8522 14.1206 12.5786 13.8385 12.5786 13.4957C12.5786 13.1529 12.8522 12.8708 13.1848 12.8708C13.5174 12.8708 13.791 13.1529 13.791 13.4957C13.791 13.8385 13.5174 14.1206 13.1848 14.1206Z" fill="#1C1C1C"/><path d="M18.1814 15.9908C17.1795 15.9908 16.3628 16.8327 16.3628 17.8655C16.3628 18.8983 17.1795 19.7401 18.1814 19.7401C19.1833 19.7401 20 18.8983 20 17.8655C19.9958 16.8327 19.1833 15.9908 18.1814 15.9908ZM18.1814 18.4904C17.8488 18.4904 17.5752 18.2083 17.5752 17.8655C17.5752 17.5227 17.8488 17.2406 18.1814 17.2406C18.514 17.2406 18.7876 17.5227 18.7876 17.8655C18.7876 18.2083 18.514 18.4904 18.1814 18.4904Z" fill="#1C1C1C"/><path d="M18.5144 11.5603L14.2457 19.7358H12.8691L17.1378 11.5603H18.5144Z" fill="#1C1C1C"/></svg>