<svg width="23" height="22" viewBox="0 0 23 22" fill="none" xmlns="http://www.w3.org/2000/svg">
<path d="M11.7935 0C5.72074 0 0.793457 4.92728 0.793457 11C0.793457 13.4316 1.58054 15.6713 2.91155 17.4951L1.51015 21.6417L5.88072 20.2787C7.58927 21.3665 9.61777 22 11.7935 22C17.8662 22 22.7935 17.0727 22.7935 11C22.7935 4.92728 17.8662 0 11.7935 0ZM16.8295 16.8999C14.833 17.6998 12.4526 16.9255 9.84814 14.9482C7.24372 12.9709 5.52877 10.1873 5.41359 8.12042C5.2984 6.05352 6.98136 5.01047 7.89642 5.01687C8.81149 5.02327 9.81614 7.94764 9.82894 8.39558C9.84174 8.84991 8.70911 9.6562 8.66431 10.0401C8.61952 10.4241 10.2065 12.3182 10.8784 12.8301C11.5439 13.3357 12.9197 14.3083 13.63 14.2187C14.3339 14.1227 14.801 12.7086 15.249 12.619C15.6969 12.5294 18.1413 13.7452 18.3845 14.0588C18.6277 14.3787 18.6021 16.196 16.8295 16.8999Z" fill="white"/>
</svg>
