<svg width="300" height="54" viewBox="0 0 300 54" fill="none" xmlns="http://www.w3.org/2000/svg">
<path d="M47.392 39.4784C47.392 42.6607 47.392 49.6274 47.392 49.9141C47.306 53.6985 45.2131 54.9313 41.9448 53.0964C38.8198 51.3476 35.7521 49.5701 32.6845 47.7639C22.6215 41.9153 12.5584 36.038 2.49539 30.1894C2.18002 29.9887 1.86466 29.8167 1.54929 29.5873C-0.572261 28.0679 -0.514921 25.6309 1.72131 24.3121C6.88184 21.2158 12.071 18.2055 17.2602 15.1665C21.016 12.959 24.7717 10.7801 28.5847 8.62986C31.079 7.22505 31.0217 7.33973 31.2797 10.2067C31.5377 13.1023 31.5377 14.1058 27.9253 16.1413C22.0767 19.3523 16.3715 22.8213 10.6089 26.2043C9.14674 27.0644 9.14674 27.1218 10.5802 27.9532C20.3852 33.6298 30.1616 39.3064 39.9666 44.9829C40.9987 45.585 41.142 45.4703 41.142 44.1515C41.142 37.8155 41.142 31.4795 41.142 25.1149C41.142 23.28 41.4001 23.28 43.1776 23.5954C46.1305 24.1401 47.3633 26.147 47.3633 29.272C47.4207 32.6837 47.392 36.0954 47.392 39.4784Z" fill="#F40046"/>
<path d="M9.00342 47.9932C9.00342 44.5815 11.727 41.8866 15.1387 41.9153C18.3784 41.9153 21.0447 44.5815 21.0733 47.8499C21.102 51.2902 18.4931 53.9565 15.0814 53.9565C11.7557 53.9565 9.00342 51.2902 9.00342 47.9932Z" fill="#F40046"/>
<path d="M32.828 15.8259C32.828 12.6436 32.828 5.67685 32.828 5.39015C32.914 1.60576 35.0069 0.372971 38.2752 2.20783C41.4002 3.95667 44.4678 5.73419 47.5355 7.54038C57.5985 13.389 67.6616 19.2662 77.7246 25.1149C78.04 25.3155 78.3553 25.4876 78.6707 25.7169C80.7636 27.2364 80.7062 29.6733 78.47 31.0208C73.3095 34.0884 68.1203 37.1274 62.9311 40.1664C59.1753 42.374 55.4196 44.5528 51.6066 46.7031C49.1123 48.1079 49.1697 47.9932 48.9116 45.1262C48.6536 42.2306 48.6536 41.2272 52.266 39.1916C58.1146 35.9806 63.8198 32.5116 69.5824 29.1286C71.0446 28.2685 71.0446 28.2112 69.6111 27.3798C59.8347 21.6745 50.0584 15.9979 40.2534 10.3213C39.2213 9.71927 39.0779 9.83394 39.0779 11.1527C39.0779 17.4887 39.0779 23.8247 39.0779 30.1894C39.0779 32.0242 38.8199 32.0242 37.0424 31.7089C34.0894 31.1641 32.8566 29.1573 32.8566 26.0323C32.7993 22.6206 32.828 19.2089 32.828 15.8259Z" fill="white"/>
<path d="M69.2957 5.96351C69.2957 9.37519 66.5721 12.0701 63.1604 12.0415C59.9208 12.0415 57.2545 9.37519 57.2258 6.10685C57.1972 2.6665 59.8061 0.000226649 63.2178 0.000226649C66.5434 -0.028443 69.2957 2.6665 69.2957 5.96351Z" fill="white"/>
<path d="M153.641 47.8784C153.125 47.8784 152.667 47.5631 152.667 46.961C152.667 46.3589 153.125 46.0436 153.641 46.0436C154.157 46.0436 154.587 46.3589 154.587 46.961C154.587 47.5631 154.129 47.8784 153.641 47.8784Z" fill="#F40046"/>
<path d="M243.377 47.8784C242.861 47.8784 242.402 47.5631 242.402 46.961C242.402 46.3589 242.861 46.0436 243.377 46.0436C243.893 46.0436 244.323 46.3589 244.323 46.961C244.323 47.5631 243.893 47.8784 243.377 47.8784Z" fill="#F40046"/>
<path d="M97.3057 28.3258V3.64124H106.795C111.096 3.64124 115.826 5.47609 115.826 10.9807C115.826 15.7111 112.3 17.718 108.688 18.1767L117.46 28.3258H114.851L106.251 18.3487H99.3699V28.3258H97.3057ZM99.4272 16.3132H106.939C110.178 16.3132 113.705 15.0804 113.705 10.952C113.705 6.82356 110.178 5.61944 106.939 5.61944H99.4272V16.3132Z" fill="white"/>
<path d="M128.269 11.0092C134.691 11.0092 136.87 16.3418 135.981 20.7856H121.904C122.162 25.086 125.717 26.8922 129.473 26.8922C131.509 26.8922 133.573 26.3761 135.006 25.516V27.4942C133.487 28.297 131.336 28.727 129.186 28.727C124.255 28.727 119.869 25.9748 119.869 19.8681C119.926 14.0482 124.169 11.0092 128.269 11.0092ZM128.412 12.8441C125.087 12.8441 122.105 14.9943 121.933 19.008H134.232C134.519 16.5998 133.171 12.8441 128.412 12.8441Z" fill="white"/>
<path d="M149.828 11.0092C153.756 11.0092 156.709 13.7042 156.709 17.8899V28.3257H154.702V18.1193C154.702 14.6216 152.523 12.8154 149.628 12.8154C146.703 12.8154 144.61 14.8223 143.492 16.6858V28.297H141.485V11.3819H143.292V14.4209C144.381 12.8441 146.761 11.0092 149.828 11.0092Z" fill="white"/>
<path d="M165.797 5.47601V11.4106H172.879V13.2741H165.797V23.0792C165.797 25.7454 167.059 26.8062 169.725 26.8062C171.101 26.8062 172.363 26.4908 173.423 26.0321V27.867C172.305 28.3544 170.786 28.6697 169.18 28.6697C165.941 28.6697 163.819 26.8922 163.819 23.4232V13.2455H160.637V11.382H163.819V5.99207L165.797 5.47601Z" fill="white"/>
<path d="M192.575 26.7202C193.034 26.7202 193.464 26.6055 193.894 26.4621V28.0963C193.32 28.297 192.69 28.4403 192.059 28.4403C190.625 28.4403 189.307 27.7236 189.135 25.8314C187.443 27.6663 185.006 28.6984 182.197 28.6984C179.244 28.6984 176.319 27.1502 176.319 23.6812C176.319 19.4954 180.19 18.148 183.802 18.148C185.608 18.148 187.5 18.4346 189.135 18.8934V17.7752C189.135 14.8223 187.242 12.8441 183.745 12.8441C181.165 12.8441 179.1 13.4461 177.667 14.0482V12.07C178.986 11.6113 181.193 11.0092 183.945 11.0092C188.418 11.0092 191.113 13.5035 191.113 18.0333V25.258C191.056 26.3761 191.744 26.7202 192.575 26.7202ZM182.541 26.9782C185.092 26.9782 187.558 25.8027 189.077 23.6525V20.5562C187.586 20.1548 185.723 19.8395 184.031 19.8395C181.251 19.8395 178.326 20.7569 178.326 23.5665C178.326 25.9174 180.39 26.9782 182.541 26.9782Z" fill="white"/>
<path d="M197.248 28.3257V11.4107H201.577V13.3889C202.466 12.3281 204.387 10.9233 206.967 10.9233C209.519 10.9233 211.153 11.9841 212.156 13.4175C213.561 12.0414 215.482 10.9233 217.804 10.9233C222.563 10.9233 224.111 14.6217 224.111 17.632V28.3544H219.238V17.9187C219.238 16.1411 218.148 15.1377 216.6 15.1377C215.253 15.1377 214.048 15.9118 213.246 16.8292C213.274 17.0872 213.274 17.3166 213.274 17.6033V28.3257H208.401V17.9187C208.401 16.1411 207.311 15.1377 205.763 15.1377C204.272 15.1377 202.953 16.1125 202.122 17.1733V28.3257H197.248Z" fill="white"/>
<path d="M236.927 10.8946C243.951 10.8946 246.216 16.4278 245.069 21.445H233.142C233.716 23.9106 236.325 24.9427 239.106 24.9427C241.055 24.9427 242.775 24.5413 244.209 23.9106V27.7523C242.632 28.4117 240.539 28.8131 237.988 28.8131C232.626 28.8131 228.183 25.7455 228.183 19.8682C228.211 13.4749 233.114 10.8946 236.927 10.8946ZM237.099 14.6216C235.006 14.6216 233.171 15.9404 233.114 18.2627H240.654C240.855 17.1159 240.167 14.6216 237.099 14.6216Z" fill="white"/>
<path d="M267.288 3.64124V28.3258H262.987V25.8602C261.898 27.3797 259.948 28.8132 256.852 28.8132C251.462 28.8132 248.566 24.484 248.566 19.8682C248.566 15.2524 251.462 10.9233 256.852 10.9233C259.547 10.9233 261.324 12.0128 262.414 13.2169V3.64124H267.288ZM258.027 15.0231C255.246 15.0231 253.584 17.202 253.584 19.8682C253.584 22.5058 255.246 24.7134 258.027 24.7134C260.178 24.7134 261.754 23.3659 262.443 21.9038V17.89C261.754 16.3705 260.178 15.0231 258.027 15.0231Z" fill="white"/>
<path d="M274.971 8.57236C273.452 8.57236 272.104 7.71227 272.104 5.79141C272.104 3.89921 273.452 3.03912 274.971 3.03912C276.52 3.03912 277.867 3.89921 277.867 5.79141C277.867 7.71227 276.52 8.57236 274.971 8.57236Z" fill="#F40046"/>
<path d="M277.437 11.382H272.534V28.297H277.437V11.382Z" fill="white"/>
<path d="M299.082 25.0861C299.369 25.0861 299.684 25.0574 300 24.9427V28.1537C299.226 28.4404 298.251 28.6411 297.276 28.6411C295.556 28.6411 294.237 28.0104 293.549 26.7489C291.886 28.0677 289.965 28.8418 287.442 28.8418C284.26 28.8418 281.508 27.0069 281.508 23.6526C281.508 19.3521 285.55 18.0047 288.962 18.0047C290.309 18.0047 291.772 18.1767 292.976 18.4634V17.8613C292.976 16.1698 291.628 14.9943 288.991 14.9943C286.668 14.9943 284.575 15.6251 282.999 16.2558V12.0127C284.375 11.554 286.955 10.8946 289.564 10.8946C294.638 10.8946 297.878 12.9875 297.878 18.5494V23.9393C297.878 24.828 298.423 25.0861 299.082 25.0861ZM286.525 23.2512C286.525 24.5127 287.7 25.3441 289.163 25.3441C290.539 25.3441 291.858 24.9427 292.976 23.9679V21.3303C292.23 21.1583 291.112 20.929 290.08 20.929C288.274 20.9003 286.525 21.5023 286.525 23.2512Z" fill="white"/>
<path d="M99.7426 49.828C98.7965 49.828 97.9364 49.6273 97.3057 49.3119V48.2798C97.8791 48.5952 98.7965 48.8245 99.5992 48.8245C100.631 48.8245 101.606 48.6238 101.606 47.7924C101.606 46.9897 100.803 46.8463 100.144 46.8463H98.7105V45.8429H100.144C100.889 45.8429 101.463 45.6135 101.463 44.9828C101.463 44.2661 100.689 43.9507 99.6566 43.9507C98.8825 43.9507 98.0224 44.18 97.4203 44.4667V43.4346C98.0797 43.1193 98.9112 42.9186 99.7713 42.9186C101.606 42.9186 102.552 43.664 102.552 44.8394C102.552 45.6422 102.065 46.1582 101.319 46.3303C102.065 46.531 102.667 47.0757 102.667 47.9358C102.696 49.1399 101.549 49.828 99.7426 49.828Z" fill="white"/>
<path d="M109.118 49.6558V43.0618H112.73C113.877 43.0618 114.766 43.6926 114.766 44.8393C114.766 45.5274 114.393 46.0721 113.877 46.3015C114.422 46.4735 114.966 46.9896 114.966 47.821C114.966 48.9104 114.278 49.6558 112.845 49.6558H109.118ZM110.207 45.8715H112.615C113.189 45.8715 113.647 45.6421 113.647 44.9827C113.647 44.2373 113.074 44.0366 112.615 44.0366H110.207V45.8715ZM110.207 48.7097H112.673C113.361 48.7097 113.848 48.5091 113.848 47.7636C113.848 46.9896 113.246 46.8176 112.701 46.8176H110.178V48.7097H110.207Z" fill="white"/>
<path d="M126.291 43.0906H127.466L124.227 50.6594C123.539 52.2649 122.707 52.867 121.732 52.867C121.503 52.867 121.274 52.8383 121.016 52.781V51.8349C121.216 51.8922 121.388 51.9209 121.589 51.9209C122.334 51.9209 122.879 51.3762 123.281 50.3154L123.539 49.7133L120.414 43.1193H121.589L124.083 48.4519L126.291 43.0906Z" fill="white"/>
<path d="M133.487 49.6558V43.0618H134.576V45.8141H135.895L137.988 43.0618H139.278L136.784 46.3302L139.593 49.6272H138.303L135.895 46.7889H134.605V49.6272H133.487V49.6558Z" fill="white"/>
<path d="M170.098 49.6558V43.0618H173.71C174.857 43.0618 175.746 43.6926 175.746 44.8393C175.746 45.5274 175.373 46.0721 174.857 46.3015C175.402 46.4735 175.946 46.9896 175.946 47.821C175.946 48.9104 175.258 49.6558 173.825 49.6558H170.098ZM171.216 45.8715H173.624C174.197 45.8715 174.656 45.6421 174.656 44.9827C174.656 44.2373 174.083 44.0366 173.624 44.0366H171.216V45.8715ZM171.216 48.7097H173.681C174.369 48.7097 174.857 48.5091 174.857 47.7636C174.857 46.9896 174.255 46.8176 173.71 46.8176H171.187V48.7097H171.216Z" fill="white"/>
<path d="M182.426 49.6558V43.0618H183.515V47.8783L187.558 43.0618H188.504V49.6558H187.414V44.8393L183.372 49.6558H182.426Z" fill="white"/>
<path d="M194.667 51.4622V48.6812H195.556C196.388 47.2191 196.703 45.5276 196.674 43.0906H201.577V48.6812H202.523V51.4622H201.462V49.6846H195.728V51.4622H194.667ZM196.732 48.6812H200.487V44.0654H197.735C197.678 46.0436 197.334 47.4197 196.732 48.6812Z" fill="white"/>
<path d="M211.497 42.9186C214.048 42.9186 214.966 44.9828 214.565 46.8463H209.318C209.461 48.2225 210.694 48.7959 212.042 48.7959C212.844 48.7959 213.647 48.5665 214.22 48.2511V49.3119C213.618 49.6273 212.758 49.7993 211.898 49.7993C209.949 49.7993 208.257 48.6812 208.257 46.3303C208.229 44.0654 209.949 42.9186 211.497 42.9186ZM211.554 43.922C210.436 43.922 209.375 44.5814 209.318 45.8716H213.59C213.676 45.1835 213.246 43.922 211.554 43.922Z" fill="white"/>
<path d="M224.025 42.9186C225.832 42.9186 227.552 44.1227 227.552 46.3876C227.552 48.6238 225.832 49.8566 224.025 49.8566C222.248 49.8566 220.499 48.6525 220.499 46.3876C220.528 44.1227 222.248 42.9186 224.025 42.9186ZM224.025 43.9507C222.678 43.9507 221.617 44.8394 221.617 46.3589C221.617 47.8784 222.678 48.7672 224.025 48.7672C225.373 48.7672 226.434 47.8784 226.434 46.3589C226.434 44.8394 225.373 43.9507 224.025 43.9507Z" fill="white"/>
<path d="M261.697 42.9186C262.442 42.9186 263.159 43.0906 263.733 43.4633V44.5241C263.245 44.1514 262.528 43.922 261.84 43.922C260.55 43.922 259.231 44.6388 259.231 46.3589C259.231 48.0504 260.522 48.7959 261.812 48.7959C262.528 48.7959 263.245 48.5952 263.79 48.2511V49.3406C263.159 49.6559 262.471 49.7993 261.64 49.7993C259.919 49.7993 258.113 48.7098 258.113 46.3589C258.113 44.008 259.977 42.9186 261.697 42.9186Z" fill="white"/>
<path d="M270.184 49.6558V43.0618H273.796C274.943 43.0618 275.831 43.6926 275.831 44.8393C275.831 45.5274 275.459 46.0721 274.943 46.3015C275.487 46.4735 276.032 46.9896 276.032 47.821C276.032 48.9104 275.344 49.6558 273.911 49.6558H270.184ZM271.302 45.8715H273.71C274.283 45.8715 274.742 45.6421 274.742 44.9827C274.742 44.2373 274.169 44.0366 273.71 44.0366H271.302V45.8715ZM271.302 48.7097H273.767C274.455 48.7097 274.943 48.5091 274.943 47.7636C274.943 46.9896 274.341 46.8176 273.796 46.8176H271.273V48.7097H271.302Z" fill="white"/>
<path d="M285.349 42.9186C287.901 42.9186 288.818 44.9828 288.417 46.8463H283.171C283.314 48.2225 284.547 48.7959 285.894 48.7959C286.697 48.7959 287.5 48.5665 288.073 48.2511V49.3119C287.471 49.6273 286.611 49.7993 285.751 49.7993C283.801 49.7993 282.11 48.6812 282.11 46.3303C282.052 44.0654 283.773 42.9186 285.349 42.9186ZM285.407 43.922C284.289 43.922 283.228 44.5814 283.171 45.8716H287.442C287.528 45.1835 287.07 43.922 285.407 43.922Z" fill="white"/>
<path d="M296.33 49.656V44.0941H293.893V43.0906H299.828V44.0941H297.419V49.656H296.33Z" fill="white"/>
</svg>
