<svg width="19" height="21" viewBox="0 0 19 21" fill="none" xmlns="http://www.w3.org/2000/svg">
<path d="M15.9704 13.1184C15.3054 12.3561 14.441 12.3561 13.7484 13.1184C13.2275 13.6917 12.7122 14.2589 12.1913 14.8322C12.0472 14.9908 11.9309 15.0213 11.7591 14.9298C11.4433 14.7102 11.0665 14.5517 10.7506 14.326C9.24896 13.277 7.98003 11.9414 6.85518 10.4228C6.3066 9.66045 5.81898 8.86761 5.46989 7.94669C5.41448 7.75763 5.41448 7.66005 5.55855 7.50148C6.10712 6.95869 6.59474 6.39151 7.11561 5.81822C7.83596 5.02538 7.83596 4.10447 7.11561 3.31163C6.6834 2.83593 6.2789 2.39072 5.8744 1.94551C5.44219 1.4698 5.03768 0.994099 4.60547 0.548889C3.94053 -0.182963 3.07611 -0.182963 2.38347 0.548889C1.8626 1.12217 1.34727 1.68936 0.826405 2.26264C0.333243 2.80543 0.0783496 3.4397 0.017397 4.16546C-0.0712615 5.34252 0.189173 6.48299 0.565971 7.59296C1.34727 9.91049 2.52754 11.9109 3.94053 13.7832C5.8744 16.3264 8.17952 18.3268 10.867 19.7539C12.0805 20.3882 13.3217 20.8944 14.646 20.992C15.5991 21.0529 16.4081 20.7724 17.0675 19.9735C17.4997 19.4002 18.0206 18.9245 18.4805 18.3878C19.1732 17.5949 19.1732 16.6435 18.4805 15.8812C17.6438 14.9603 16.8071 14.0394 15.9704 13.1184Z" fill="#F40046"/>
</svg>
