<svg width="13" height="14" viewBox="0 0 13 14" fill="none" xmlns="http://www.w3.org/2000/svg">
<path d="M11.7607 5.82356C11.5053 5.82356 11.2702 5.90317 11.0728 6.03586C10.9045 5.54639 10.443 5.1955 9.90312 5.1955C9.64771 5.1955 9.41261 5.27512 9.21524 5.4078C9.0469 4.91833 8.58542 4.56745 8.04556 4.56745C7.81917 4.56745 7.60729 4.62937 7.42734 4.73552V2.67739C7.42734 1.98447 6.87298 1.41833 6.188 1.41833C5.50303 1.41833 4.94866 1.98152 4.94866 2.67739V8.02322L3.87186 7.20351C3.23332 6.71699 2.32776 6.78185 1.76179 7.35683C1.39898 7.72541 1.39898 8.32398 1.76179 8.6896L6.17059 13.1685C6.69593 13.7022 7.39832 13.9971 8.14134 13.9971H9.59256C11.4704 13.9971 12.9971 12.4461 12.9971 10.5384V7.07966C13 6.38674 12.4428 5.82356 11.7607 5.82356ZM12.3789 10.5413C12.3789 12.1011 11.1279 13.372 9.59256 13.372H8.14134C7.56086 13.372 7.0181 13.142 6.60886 12.7263L2.20006 8.24731C2.07815 8.12347 2.07815 7.92592 2.20006 7.80207C2.39162 7.60747 2.64703 7.50721 2.90535 7.50721C3.11432 7.50721 3.3262 7.57208 3.50035 7.70772L5.07057 8.90485C5.16344 8.97562 5.29115 8.98741 5.39564 8.93434C5.50013 8.88126 5.56688 8.77217 5.56688 8.65422V2.67739C5.56688 2.32946 5.84552 2.04934 6.1851 2.04934C6.52469 2.04934 6.80332 2.3324 6.80332 2.67739V7.39517C6.80332 7.56913 6.94264 7.71067 7.11388 7.71067C7.28512 7.71067 7.42444 7.56913 7.42444 7.39517V5.82356C7.42444 5.47562 7.70307 5.1955 8.04266 5.1955C8.38225 5.1955 8.66088 5.47857 8.66088 5.82356V7.39517C8.66088 7.56913 8.8002 7.71067 8.97144 7.71067C9.14268 7.71067 9.282 7.56913 9.282 7.39517V6.45161C9.282 6.10367 9.56063 5.82356 9.90022 5.82356C10.2398 5.82356 10.5184 6.10662 10.5184 6.45161V7.39517C10.5184 7.56913 10.6578 7.71067 10.829 7.71067C11.0002 7.71067 11.1396 7.56913 11.1396 7.39517V7.07966C11.1396 6.73173 11.4182 6.45161 11.7578 6.45161C12.0974 6.45161 12.376 6.73468 12.376 7.07966L12.3789 10.5413Z" fill="#282828"/>
<path d="M11.305 2.21146L12.3702 1.10573L11.305 0L11.1569 0.153328L11.9696 0.99663H8.04553V1.21483H11.9696L11.1569 2.05813L11.305 2.21146Z" fill="#6480D0"/>
<path d="M1.06519 0L0 1.10573L1.06519 2.21146L1.21322 2.05813L0.400536 1.21483H4.32463V0.99663H0.400536L1.21322 0.153328L1.06519 0Z" fill="#6480D0"/>
</svg>
